HIERARCHY
ROOT Hips
{
 OFFSET 0.000000 0.000000 0.000000
 CHANNELS 6 Xposition Yposition Zposition Yrotation Xrotation Zrotation
 JOINT Chest
 {
  OFFSET 0.000000 9.581000 -0.001100
  CHANNELS 3 Yrotation Xrotation Zrotation
  JOINT Chest2
  {
   OFFSET 0.000000 9.561100 0.002200
   CHANNELS 3 Yrotation Xrotation Zrotation
   JOINT Chest3
   {
    OFFSET 0.000000 9.521100 0.000000
    CHANNELS 3 Yrotation Xrotation Zrotation
    JOINT Chest4
    {
     OFFSET 0.000000 9.511400 0.000000
     CHANNELS 3 Yrotation Xrotation Zrotation
     JOINT Neck
     {
      OFFSET 0.000000 14.375100 0.000000
      CHANNELS 3 Yrotation Xrotation Zrotation
      JOINT Head
      {
       OFFSET 0.000000 8.901200 0.004600
       CHANNELS 3 Yrotation Xrotation Zrotation
       End Site
       {
        OFFSET 0.000000 16.962200 0.002400
       }
      }
     }
     JOINT RightCollar
     {
      OFFSET -2.920100 9.518800 0.000000
      CHANNELS 3 Yrotation Xrotation Zrotation
      JOINT RightShoulder
      {
       OFFSET -13.664500 0.000000 0.000000
       CHANNELS 3 Yrotation Xrotation Zrotation
       JOINT RightElbow
       {
        OFFSET 0.000000 -29.999200 0.000000
        CHANNELS 3 Yrotation Xrotation Zrotation
        JOINT RightWrist
        {
         OFFSET 0.000000 -24.253600 0.000000
         CHANNELS 3 Yrotation Xrotation Zrotation
         End Site
         {
          OFFSET 0.000000 -17.918900 0.000000
         }
        }
       }
      }
     }
     JOINT LeftCollar
     {
      OFFSET 2.920100 9.518800 0.000000
      CHANNELS 3 Yrotation Xrotation Zrotation
      JOINT LeftShoulder
      {
       OFFSET 13.664500 0.000000 0.000000
       CHANNELS 3 Yrotation Xrotation Zrotation
       JOINT LeftElbow
       {
        OFFSET 0.000000 -29.999200 0.000000
        CHANNELS 3 Yrotation Xrotation Zrotation
        JOINT LeftWrist
        {
         OFFSET 0.000000 -24.253600 0.000000
         CHANNELS 3 Yrotation Xrotation Zrotation
         End Site
         {
          OFFSET 0.000000 -17.918900 0.000000
         }
        }
       }
      }
     }
    }
   }
  }
 }
 JOINT RightHip
 {
  OFFSET -7.797300 0.005300 0.000500
  CHANNELS 3 Yrotation Xrotation Zrotation
  JOINT RightKnee
  {
   OFFSET 0.000000 -40.663400 -0.000500
   CHANNELS 3 Yrotation Xrotation Zrotation
   JOINT RightAnkle
   {
    OFFSET 0.000000 -39.523700 -0.000900
    CHANNELS 3 Yrotation Xrotation Zrotation
    JOINT RightToe
    {
     OFFSET 0.000000 -6.418000 14.485300
     CHANNELS 3 Yrotation Xrotation Zrotation
     End Site
     {
      OFFSET 0.000000 -1.465200 6.326400
     }
    }
   }
  }
 }
 JOINT LeftHip
 {
  OFFSET 7.797300 0.005300 0.000500
  CHANNELS 3 Yrotation Xrotation Zrotation
  JOINT LeftKnee
  {
   OFFSET 0.000000 -40.663400 -0.000500
   CHANNELS 3 Yrotation Xrotation Zrotation
   JOINT LeftAnkle
   {
    OFFSET 0.000000 -39.523700 -0.000900
    CHANNELS 3 Yrotation Xrotation Zrotation
    JOINT LeftToe
    {
     OFFSET 0.000000 -6.418000 14.485300
     CHANNELS 3 Yrotation Xrotation Zrotation
     End Site
     {
      OFFSET 0.000000 -1.465200 6.326400
     }
    }
   }
  }
 }
}
MOTION
Frames: 11
Frame Time: 0.008333
0.000000 86.422400 0.000000 0.000000 -5.767877 0.000000 0.000000 11.653817 0.000000 0.000000 -5.885947 0.000000 0.000000 -0.000000 0.000000 0.000000 -0.000000 0.000000 0.000000 12.528835 0.000000 0.000000 0.711642 0.000000 0.000000 -0.000000 0.000000 0.000000 0.000000 -90.000000 0.000000 -2.309062 0.000000 0.000000 2.309062 0.000000 0.000000 -0.000000 0.000000 0.000000 -0.000000 90.000000 0.000000 -2.309062 0.000000 0.000000 2.309062 0.000000 0.000000 8.520406 0.000000 0.000000 1.905762 0.000000 -0.000000 -4.658285 0.000000 0.000000 -0.000000 0.000000 0.000000 8.520406 0.000000 0.000000 1.905762 0.000000 -0.000000 -4.658285 0.000000 0.000000 -0.000000 0.000000
-22.634842 126.449216 61.506399 178.560475 -29.060990 -3.372705 -0.757851 19.362376 0.846537 -0.103127 2.323410 0.113541 -0.129267 3.808723 0.180570 -0.666870 16.761296 0.747263 1.002308 17.373788 1.030970 0.836861 -7.439231 0.840813 -8.022808 -2.415271 0.911263 -9.067989 -1.170486 -3.676303 86.329082 -79.618644 -72.501748 -6.815035 -19.815617 -31.585459 -7.687332 -1.153263 0.424638 11.182908 -5.558878 4.580414 3.604722 -81.384272 -4.588124 -4.237302 -26.259959 25.594160 -7.848126 -49.520208 6.050627 -159.356264 74.210042 -153.421562 9.646543 -22.608681 -7.785911 0.005687 -0.006135 0.002519 -14.944665 -52.850346 1.438235 31.063854 64.121349 21.726221 -4.990432 40.293332 -2.846867 0.003884 -0.004842 0.001721
-22.633795 126.448362 61.506408 178.569304 -29.046025 -3.381373 -0.728007 19.340675 0.862373 -0.078907 2.312429 0.108621 -0.160884 3.813243 0.184588 -0.665894 16.758764 0.751180 1.077108 17.404856 0.988827 0.858598 -7.394213 0.826154 -7.969844 -2.479594 0.882533 -9.042564 -1.131618 -3.662391 86.579923 -79.619651 -72.687321 -6.799848 -19.769893 -31.651407 -7.681405 -1.224510 0.424969 11.172253 -5.578264 4.607541 3.513710 -81.412057 -4.480538 -4.260061 -26.238725 25.566303 -7.882347 -49.530245 6.054936 -159.409930 74.219791 -153.470623 9.647403 -22.610067 -7.801787 0.004880 -0.005895 0.002162 -14.991744 -52.868647 1.473384 31.060698 64.132936 21.753818 -5.044149 40.278668 -2.938986 0.015020 -0.002250 0.006655
-22.632740 126.447356 61.506481 178.575690 -29.028776 -3.388870 -0.685892 19.317377 0.872500 -0.115608 2.316044 0.117394 -0.159745 3.811118 0.184635 -0.578199 16.697824 0.742651 1.072043 17.481689 0.986928 0.902496 -7.344931 0.793710 -7.986502 -2.491846 0.872716 -9.021927 -1.085065 -3.646331 86.625764 -79.623233 -72.700700 -6.798393 -19.748658 -31.663192 -7.740883 -1.241170 0.448424 11.168106 -5.601840 4.626205 3.356794 -81.437523 -4.308338 -4.286224 -26.219266 25.532205 -7.918118 -49.541693 6.061515 -159.458143 74.229734 -153.523812 9.652954 -22.613657 -7.808740 -0.000375 -0.004256 -0.000166 -15.113060 -52.901712 1.561566 31.129430 64.150672 21.826545 -5.133363 40.269289 -3.080799 0.020288 -0.004649 0.008988
-22.631656 126.446518 61.506180 178.578677 -29.013497 -3.394698 -0.660191 19.295939 0.879682 -0.112984 2.313421 0.119496 -0.155818 3.802977 0.184828 -0.569259 16.680621 0.743543 1.112534 17.527135 0.964430 0.950367 -7.295140 0.761092 -7.951083 -2.536406 0.846904 -8.989817 -1.041567 -3.633697 86.495218 -79.627149 -72.563854 -6.813104 -19.736241 -31.634832 -7.745751 -1.286792 0.458513 11.173551 -5.630226 4.636165 3.137476 -81.462029 -4.078023 -4.315742 -26.201665 25.504378 -7.946897 -49.552316 6.067784 -159.496468 74.238190 -153.565558 9.663079 -22.614329 -7.814892 -0.002317 -0.002831 -0.001027 -15.224782 -52.932866 1.639313 31.187029 64.166994 21.901557 -5.230131 40.259155 -3.238823 0.025685 -0.006045 0.011379
-22.630239 126.445925 61.505557 178.578881 -29.001131 -3.400798 -0.649693 19.280109 0.886587 -0.090336 2.296062 0.111312 -0.143758 3.782869 0.182908 -0.575619 16.684118 0.753550 1.156851 17.573971 0.942509 1.002092 -7.243679 0.728283 -7.912355 -2.574603 0.819869 -8.952228 -1.005408 -3.624387 86.293150 -79.628147 -72.351499 -6.840409 -19.716072 -31.585331 -7.743959 -1.325962 0.467579 11.189390 -5.660014 4.640128 2.894897 -81.489617 -3.831170 -4.349728 -26.182630 25.489928 -7.962776 -49.561761 6.072901 -159.473319 74.233279 -153.522819 9.679932 -22.612293 -7.835549 0.010347 -0.003728 0.004584 -15.346710 -52.965976 1.718506 31.238176 64.188815 21.976818 -5.359517 40.246464 -3.423886 0.020464 -0.008750 0.009066
-22.628508 126.445693 61.504514 178.575330 -28.993299 -3.406280 -0.634953 19.266835 0.895574 -0.082243 2.280075 0.106787 -0.148790 3.785539 0.185184 -0.571560 16.682984 0.755884 1.211387 17.601596 0.914645 1.053734 -7.190579 0.696387 -7.859622 -2.628593 0.787244 -8.917161 -0.975687 -3.617443 85.975159 -79.633259 -72.071872 -6.890047 -19.686801 -31.447089 -7.723240 -1.382592 0.470576 11.212410 -5.687421 4.640063 2.660520 -81.522562 -3.593676 -4.384852 -26.159237 25.473031 -7.995753 -49.562799 6.082608 -159.475657 74.239615 -153.521704 9.701392 -22.607055 -7.856244 0.012292 -0.003382 0.005446 -15.486031 -53.001358 1.797850 31.283794 64.218080 22.045905 -5.404019 40.240178 -3.554400 0.021311 -0.011733 0.009441
-22.628104 126.445670 61.503167 178.571908 -28.988818 -3.402879 -0.625755 19.250030 0.890027 -0.080921 2.274210 0.108027 -0.153304 3.797079 0.188568 -0.560686 16.668917 0.754766 1.261503 17.629843 0.890573 1.104015 -7.136740 0.665663 -7.811799 -2.681089 0.755523 -8.885145 -0.948973 -3.613076 85.707577 -79.624131 -71.749205 -6.940810 -19.640911 -31.355918 -7.708228 -1.419002 0.474219 11.245602 -5.729834 4.632244 2.438710 -81.558490 -3.363272 -4.418097 -26.126095 25.451107 -8.020013 -49.562273 6.076595 -159.483961 74.246468 -153.525395 9.720811 -22.599270 -7.877898 0.013982 -0.004081 0.006195 -15.567619 -53.026440 1.828327 31.225190 64.250152 22.045637 -5.542840 40.216360 -3.708808 0.012604 -0.013979 0.005583
-22.627849 126.445601 61.502185 178.570016 -28.983428 -3.398107 -0.615457 19.229985 0.884449 -0.087861 2.275975 0.110128 -0.142293 3.781957 0.186020 -0.549429 16.653483 0.757171 1.297141 17.682918 0.874563 1.153870 -7.083792 0.634091 -7.779578 -2.709850 0.728082 -8.896433 -0.898781 -3.603636 85.581549 -79.607885 -71.523004 -7.008746 -19.580372 -31.208483 -7.721029 -1.394113 0.479132 11.297026 -5.803976 4.614171 2.229815 -81.594138 -3.144124 -4.450069 -26.080987 25.434070 -8.059057 -49.556933 6.061290 -159.552898 74.266582 -153.601137 9.740110 -22.593630 -7.881296 0.002890 -0.001732 0.001280 -15.630164 -53.045796 1.837816 31.096371 64.285044 21.986667 -5.620587 40.186688 -3.815122 0.011130 -0.012459 0.004930
-22.625585 126.445421 61.502027 178.552837 -28.975250 -3.396541 -0.601402 19.204237 0.889005 -0.085380 2.288885 0.111066 -0.137782 3.747205 0.184546 -0.533174 16.622826 0.758255 1.327231 17.765417 0.857352 1.155508 -7.066207 0.637434 -7.746272 -2.712087 0.698644 -8.907539 -0.851443 -3.598574 85.418229 -79.597223 -71.284346 -7.094596 -19.499086 -30.976875 -7.700263 -1.392473 0.476975 11.299760 -5.804206 4.609401 2.100061 -81.645653 -2.988111 -4.479941 -26.028398 25.420039 -8.069568 -49.558577 6.063650 -159.576268 74.280713 -153.611855 9.750817 -22.583989 -7.899031 0.002445 -0.001155 0.001083 -15.657124 -53.058338 1.853537 30.867270 64.332702 21.842996 -5.664268 40.152085 -3.919151 0.020842 -0.009604 0.009233
-22.623633 126.445563 61.501566 178.544039 -28.969365 -3.395411 -0.596934 19.189037 0.893160 -0.080619 2.283638 0.110908 -0.138538 3.756277 0.182987 -0.529785 16.606194 0.758459 1.345282 17.794780 0.845588 1.181066 -7.041682 0.620214 -7.699389 -2.763604 0.674201 -8.877279 -0.824712 -3.605800 85.097155 -79.587398 -70.923104 -7.186168 -19.411588 -30.703976 -7.644481 -1.492202 0.473039 11.251343 -5.707531 4.627625 2.104285 -81.730123 -2.932806 -4.509987 -25.968620 25.405798 -8.073902 -49.560082 6.062554 -159.591761 74.293914 -153.609746 9.759563 -22.570289 -7.919168 0.008411 -0.002968 0.003726 -15.683213 -53.065322 1.860408 30.624634 64.378615 21.683591 -5.692824 40.115798 -4.014704 0.029970 -0.006388 0.013278
